<svg width="35" height="35" viewBox="0 0 35 35" fill="none" xmlns="http://www.w3.org/2000/svg">
<path d="M25.2059 5.40606L27.265 3.34106L31.6546 7.71606L29.594 9.78252L25.2059 5.40606ZM9.76793 5.40606L5.40752 9.77961L3.3396 7.72044L7.70002 3.34544L9.76793 5.40606ZM17.5 5.83336C10.3848 5.83336 4.37502 11.8431 4.37502 18.9584C4.37502 26.0736 10.3848 32.0834 17.5 32.0834C24.6152 32.0834 30.625 26.0736 30.625 18.9584C30.625 11.8431 24.6152 5.83336 17.5 5.83336ZM18.9584 26.25H16.0417V23.3334H18.9584V26.25ZM18.9584 20.4167H16.0417V11.6667H18.9584V20.4167Z" fill="#666666"/>
</svg>
